# xmcd
#
# Track frame offsets: 
#        150
#        18989
#        37462
#        55324
#        74065
#
# Disc length: 1214 seconds
#
# Revision: 0
# Processed by: cddbd v1.5.2PL0 Copyright (c) Steve Scherf et al.
# Submitted via: ExactAudioCopyFreeDBPlugin 1.0
#
DISCID=4b04bc05
DTITLE=121 North - Ride of Your Life
DYEAR=2013
DGENRE=Texas Country
TTITLE0=Runnin' Down The Road
TTITLE1=Moon and Back
TTITLE2=Ride of Your Life
TTITLE3=Free Fallin'
TTITLE4=County Line
EXTD=
EXTT0=
EXTT1=
EXTT2=
EXTT3=
EXTT4=
PLAYORDER=
